<svg xmlns="http://www.w3.org/2000/svg" width="64" height="64" viewBox="0 0 64 64">
  <defs>
    <linearGradient id="bajajBody" x1="0" x2="0" y1="0" y2="1">
      <stop offset="0" stop-color="#22c55e"/>
      <stop offset="1" stop-color="#047857"/>
    </linearGradient>
    <linearGradient id="bajajRoof" x1="0" x2="0" y1="0" y2="1">
      <stop offset="0" stop-color="#bbf7d0"/>
      <stop offset="1" stop-color="#6ee7b7"/>
    </linearGradient>
    <radialGradient id="bajajGlass" cx="0.5" cy="0.3" r="0.9">
      <stop offset="0" stop-color="#f9fafb"/>
      <stop offset="1" stop-color="#c4ddf5"/>
    </radialGradient>
  </defs>

  <!-- shadow -->
  <ellipse cx="30" cy="54" rx="20" ry="3.5" fill="#000" opacity="0.18"/>

  <!-- cabin body -->
  <path d="M12 26c0-1.7 1.1-3.2 2.7-3.8l10-3.8c1-.4 2.1-.6 3.2-.6h6.5c1.5 0 2.9.3 4.2.9l6.3 2.9C46.6 23.2 48 25 48 27v9c0 2.2-1.8 4-4 4H16c-2.2 0-4-1.8-4-4z" fill="url(#bajajBody)"/>

  <!-- roof canvas -->
  <path d="M16 20h20c2 0 3.8.8 5.1 2.1L44 24H18z" fill="url(#bajajRoof)"/>

  <!-- front windshield -->
  <path d="M18 24h10c1.1 0 2 .6 2.4 1.6l1.4 3.4H18z" fill="url(#bajajGlass)"/>

  <!-- rear passenger window -->
  <path d="M31 24h9c.9 0 1.7.5 2.1 1.3l1.3 3.3H32z" fill="url(#bajajGlass)" opacity="0.95"/>

  <!-- small rear engine box -->
  <rect x="40" y="26" width="7" height="8" rx="2" fill="#064e3b"/>

  <!-- wheels -->
  <circle cx="20" cy="46" r="6.5" fill="#020617"/>
  <circle cx="38" cy="46" r="6.5" fill="#020617"/>
  <circle cx="20" cy="46" r="3" fill="#e5e7eb"/>
  <circle cx="38" cy="46" r="3" fill="#e5e7eb"/>
</svg>