<svg xmlns="http://www.w3.org/2000/svg" width="64" height="64" viewBox="0 0 64 64">
  <defs>
    <linearGradient id="pinGrad" x1="0" x2="0" y1="0" y2="1">
      <stop offset="0" stop-color="#ec4899"/>
      <stop offset="1" stop-color="#be185d"/>
    </linearGradient>
    <radialGradient id="pinInner" cx="0.5" cy="0.3" r="0.9">
      <stop offset="0" stop-color="#fee2f2"/>
      <stop offset="1" stop-color="#f472b6"/>
    </radialGradient>
  </defs>

  <!-- shadow -->
  <ellipse cx="32" cy="56" rx="14" ry="3.5" fill="#000" opacity="0.18"/>

  <!-- marker body -->
  <path d="M32 8c-8 0-14 6.2-14 13.8 0 7.2 4.9 13.1 9 19.4 1.4 2.1 2.6 4.1 3.3 5.1.4.6 1 .9 1.7.9s1.3-.3 1.7-.9c.7-1 1.9-3 3.3-5.1 4.1-6.3 9-12.2 9-19.4C46 14.2 40 8 32 8z" fill="url(#pinGrad)"/>

  <!-- inner highlight circle -->
  <circle cx="32" cy="22" r="6" fill="url(#pinInner)"/>

  <!-- small gloss -->
  <path d="M27 20c.8-1.6 2.5-2.8 4.4-2.8" stroke="#fdf2f8" stroke-width="1.4" stroke-linecap="round" opacity="0.9"/>
</svg>